<svg width="1907" height="37" fill="none" xmlns="http://www.w3.org/2000/svg"><mask id="a" style="mask-type:alpha" maskUnits="userSpaceOnUse" x="0" y="0" width="1907" height="37"><path fill="#fff" d="M0 0h1907v37H0z"/></mask><g mask="url(#a)"><path fill-rule="evenodd" clip-rule="evenodd" d="M135.861-128.382c-50.69-8.073-108.365 20.38-128.822 63.553-20.456 43.172 4.053 84.715 54.743 92.788 34.453 5.488 72.133-5.9 99.16-27.313a33.843 33.843 0 0 0 3.427 4.823c15.116 17.833 48.595 22.848 74.779 11.2a62.324 62.324 0 0 0 8.153-4.357c12.607 4.14 26.352 4.227 37.453-.711l.205-.092c4.506 3.835 9.619 7.367 15.328 10.52C342.956 45.6 403.53 39.547 439.481 9.144c15.58 10.374 36.571 13.442 52.273 6.457 4.722-2.1 8.54-4.92 11.417-8.239 18.244 5.066 37.288 6.285 54.834 3.067 16.82 7.376 39.359 7.595 58.142-.76a62.709 62.709 0 0 0 7.459-3.922c15.227 17.607 48.494 22.509 74.54 10.922 5.87-2.611 10.876-5.838 14.938-9.475 34.673 26.39 84.478 35.064 121.137 18.757 9.106-4.05 16.682-9.323 22.668-15.487 13.244 4.956 28.051 5.391 39.865.136 2.794-1.243 5.272-2.738 7.426-4.44 34.164 20.79 79.198 26.183 113.54 10.905 6.7-2.981 12.62-6.581 17.73-10.68 11.95 9.967 27.66 15.45 41.72 13.34 6.93-1.04 12.62-3.802 16.81-7.775 33.06 18.53 74.56 23.095 106.24 9.002 7.63-3.393 14.18-7.643 19.63-12.556 17.12 9.31 41.92 10.339 62.3 1.273a67.808 67.808 0 0 0 3.82-1.848c39.48 32.382 103.11 37.228 142.55 10.735a81.79 81.79 0 0 0 5.24-3.82c14.99 8.248 33.69 10.229 48 3.865 6.36-2.832 11.09-6.974 14.07-11.881 34.7 23.6 82.73 30.434 118.89 14.345 8.64-3.843 15.98-8.714 21.96-14.355 14.23 6.551 30.99 7.711 44.07 1.891.83-.366 1.62-.753 2.39-1.162 38.01 31.92 98.79 38.973 138.39 15.334 4.46-2.663 8.47-5.607 12.02-8.784 14.6 3.093 31.3 1.745 45.77-4.692 26.18-11.647 35.16-35.546 20.04-53.38-6.28-7.41-15.73-12.607-26.52-15.315 1.77-8.373-.3-17.06-6.74-24.649-12.26-14.466-36.6-20.497-59.34-16.042-37.46-21.517-87.35-23.952-121.49-3.571-18.62 11.121-29.36 27.123-32.01 44.548a52.33 52.33 0 0 0-1.3-.178c-3.23-9.104-8.47-18.173-15.79-26.813-33.19-39.155-96.6-54.658-141.63-34.627-29.13 12.958-43.43 37.61-40.92 64.003-4.72-11.529-12.95-22.67-24.69-32.45-39.43-32.861-103.54-37.905-143.2-11.267a82.9 82.9 0 0 0-6.89 5.167c-15.53-4.36-34.13-3.432-50.03 3.643-3.8 1.689-7.24 3.635-10.29 5.783-33.34-38.61-95.11-54.284-138.48-34.991-18.46 8.212-30.64 21.444-36.02 36.943a99.547 99.547 0 0 0-4.85-6.204c-33.19-39.155-96.603-54.658-141.634-34.627-23.661 10.526-37.54 28.767-40.57 49.39a103.218 103.218 0 0 0-3.803-4.764c-33.189-39.155-95.479-55.156-139.128-35.739-27.733 12.336-41.269 36.002-38.942 61.663-10.675-.187-21.709 1.832-31.685 6.27a62.788 62.788 0 0 0-7.459 3.921c-4.52-5.227-10.629-9.334-17.668-12.222-1.014-15.18-7.604-31.128-20.118-45.892-33.188-39.155-95.478-55.156-139.128-35.739-16.827 7.485-28.427 19.141-34.429 32.883-44.812-23.263-107.955-14.922-142.329 19.19-9.582 9.51-15.934 20.035-19.184 30.816-11.349-2.831-23.249-2.398-33.077 1.974-.174.078-.347.156-.519.236-10.558-2.128-22.172-1.948-33.223.782 8.11-36.854-16.186-69.377-60.413-76.421Z" fill="#fff"/></g></svg>