<svg width="512" height="512" fill="none" xmlns="http://www.w3.org/2000/svg"><path d="M355.108 109.228a7.901 7.901 0 0 1 7.902 7.9v73.826a7.901 7.901 0 0 1-7.902 7.901h-19.583a7.902 7.902 0 0 1-7.903-7.901v-73.826c0-4.363 3.538-7.9 7.903-7.9h19.583Zm10.003 99.185a7.902 7.902 0 0 1 7.903 7.901v131.678a7.902 7.902 0 0 1-7.903 7.901h-77.548v-84.325a5.897 5.897 0 0 0-5.898-5.896h-48.037a5.897 5.897 0 0 0-5.898 5.896v84.325h-79.807a7.901 7.901 0 0 1-7.902-7.901V216.314a7.901 7.901 0 0 1 7.902-7.901h217.188Z" fill="#45DADD"/><path d="M255.265 73.41a5 5 0 0 1 7.138.054l132.259 136.844c3.067 3.174.818 8.475-3.596 8.475H122.495c-4.45 0-6.683-5.376-3.542-8.529L255.265 73.41Z" fill="#D53135"/><path d="M368.915 68.582c0 11.281-13.092 19.69-21.933 27.294-1.626 1.399-4.069 1.416-5.704.028-9.135-7.762-21.906-15.999-21.906-27.322 0-12.57 15.482-16.595 24.771-8.06 9.032-8.298 24.772-4.51 24.772 8.06Z" fill="#FF5252"/><rect x="162.686" y="260.039" width="44.029" height="44.018" rx="5" fill="#F67B1B"/><rect x="312.474" y="234.411" width="35.388" height="43.635" rx="5" fill="#3A74AD"/><path d="M414.513 346.393a1542.842 1542.842 0 0 0-21.005 9.347h-.228v-36.559h21.233v27.212Z" fill="#6B8822"/><rect x="355.833" y="229.482" width="94.368" height="94.345" rx="47.172" fill="#F77B1B"/><rect width="117.96" height="117.931" rx="58.965" transform="matrix(1 -.00046 .02932 .99957 40.49 154.569)" fill="#F5C336"/><path d="M58.228 371.804c40.438-.88 109.352-.894 148.701 7.445 26.058 5.523 39.151 16.886 45.666 27.745.944 1.574 10.053 1.574 10.997 0 6.514-10.859 20.959-22.222 47.017-27.745 38.025-8.058 103.656-8.317 144.521-7.531-5.628-16.451-19.933-28.801-38.17-30.642-33.309-3.362-86.896-7.11-160.266-7.109-73.369 0-126.956 3.748-160.266 7.109-18.268 1.843-32.591 14.234-38.2 30.728Z" fill="#86E14E"/><path fill-rule="evenodd" clip-rule="evenodd" d="M88.777 270.882h23.651v100.697c-8.1-.126-16.05-.169-23.65-.153V270.882Z" fill="#2C69A6"/><path d="M17.067 416.587C11.784 414.43 6 418.315 6 424.02a8.03 8.03 0 0 0 4.884 7.387l206.854 3.569c1.14.486 2.084 1.329 2.792 2.347a29.33 29.33 0 0 0 24.073 12.572h24.689a29.33 29.33 0 0 0 24.68-13.481c.716-1.115 1.707-2.041 2.926-2.56l203.59-2.18a9.061 9.061 0 0 0 5.512-8.336c0-5.373-5.454-9.027-10.425-6.984l-209.953 1.097c-1.734.713-3.024 2.228-4.02 3.815-2.381 3.795-8.894 10.274-25.602 10.274-15.829 0-21.657-5.816-23.779-9.654-1.053-1.904-2.45-3.815-4.464-4.637l-210.69-.662Z" fill="#326190"/><path d="M415.815 415.783a4.997 4.997 0 0 1 4.683-4.884l26.36-1.663a5.002 5.002 0 0 1 5.308 5.289l-1.878 31.49c-.089 1.491-1.721 2.361-3.009 1.604l-11.292-6.635a3 3 0 0 0-3.447.287l-14.186 11.897c-1.317 1.104-3.321.143-3.285-1.575l.746-35.81Z" fill="#D43135"/></svg>