<svg width="1440" height="120" fill="none" xmlns="http://www.w3.org/2000/svg"><path d="M27.185 104.826h-6.049l-.066-3.142v-7.356h6.115v10.498Z" fill="#6B8822"/><rect x="10.286" y="68.57" width="27.178" height="27.09" rx="13.545" fill="#F67B1B"/><path d="M295.278 105.255h6.05l.065-3.141v-7.356h-6.115v10.497Z" fill="#6B8822"/><rect width="27.178" height="27.09" rx="13.545" transform="matrix(-1 0 0 1 312.178 69)" fill="#F67B1B"/><path d="M494.279 104.826h6.049l.066-3.142v-7.356h-6.115v10.498Z" fill="#6B8822"/><rect width="27.178" height="27.09" rx="13.545" transform="matrix(-1 0 0 1 511.178 68.57)" fill="#F67B1B"/><path d="M574.136 104.826h6.05l.065-3.142v-7.356h-6.115v10.498Z" fill="#6B8822"/><rect width="27.178" height="27.09" rx="13.545" transform="matrix(-1 0 0 1 591.036 68.57)" fill="#F67B1B"/><path d="M133.707 104.826h6.05l.065-3.142v-7.356h-6.115v10.498Z" fill="#6B8822"/><rect width="27.178" height="27.09" rx="13.545" transform="matrix(-1 0 0 1 150.607 68.57)" fill="#F67B1B"/><rect width="33.972" height="33.863" rx="16.931" transform="matrix(1 -.00046 .02932 .99957 20.572 48.022)" fill="#F5C236"/><path d="M41.295 81.412h-6.812v29.454a403.597 403.597 0 0 1 6.812 4.227v-33.68Z" fill="#2C69A6"/><rect width="33.972" height="33.863" rx="16.931" transform="matrix(-1 -.00046 -.02932 .99957 297.251 50.016)" fill="#F5C236"/><path d="M276.528 83.408h6.811v29.454a404.423 404.423 0 0 0-6.811 4.227v-33.68Z" fill="#2C69A6"/><rect width="33.972" height="33.863" rx="16.931" transform="matrix(-1 -.00046 -.02932 .99957 482.965 42.879)" fill="#F5C236"/><path d="M462.242 76.272h6.811v29.454a391.84 391.84 0 0 0-6.811 4.227V76.272Z" fill="#2C69A6"/><rect width="33.972" height="33.863" rx="16.931" transform="matrix(-1 -.00046 -.02932 .99957 638.251 48.022)" fill="#F5C236"/><path d="M617.527 81.412h6.812v29.454a408.434 408.434 0 0 0-6.812 4.227v-33.68Z" fill="#2C69A6"/><path d="M726.53 40.283h22.361l5.962 56.572h-34.285l5.962-56.572Z" fill="#F5C236"/><path fill-rule="evenodd" clip-rule="evenodd" d="M767.053 13.609a1.714 1.714 0 0 0 .15-2.558L756.654.502a1.715 1.715 0 0 0-2.558.15l-15.899 20.139c-.686.87-2.004.87-2.691 0L719.609.654a1.715 1.715 0 0 0-2.558-.15l-10.549 10.55a1.715 1.715 0 0 0 .15 2.557l20.139 15.899a1.715 1.715 0 0 1 0 2.69l-20.138 15.898a1.715 1.715 0 0 0-.15 2.558l10.549 10.55a1.715 1.715 0 0 0 2.558-.15l15.897-20.136a1.714 1.714 0 0 1 2.691 0l15.9 20.14a1.714 1.714 0 0 0 2.557.15l10.549-10.55a1.714 1.714 0 0 0-.15-2.557L746.912 32.2a1.715 1.715 0 0 1 0-2.691l20.141-15.901Zm-30.2 17.245.002.003h.001v-.001l-.002-.002h-.001Z" fill="#FF5252"/><path d="M732.171 26.18a7.096 7.096 0 1 1 10.036 10.035 7.096 7.096 0 1 1-10.036-10.035Z" fill="#D43135"/><path d="M734.616 28.622a3.638 3.638 0 0 1 5.146 0 3.638 3.638 0 1 1-5.146 5.147 3.638 3.638 0 0 1 0-5.147Z" fill="#FF5252"/><path d="M732.256 81.84a3.429 3.429 0 0 1 3.429-3.428h3.573a3.428 3.428 0 0 1 3.428 3.429v15.345h-10.43V81.841Z" fill="#45DADD"/><rect x="734.344" y="63.084" width="6.258" height="6.258" rx="3.129" fill="#F67B1B"/><rect x="734.344" y="50.568" width="6.258" height="6.258" rx="3.129" fill="#326190"/><path d="M708.568 102.57a5.714 5.714 0 0 1 5.714-5.714h45.143a5.714 5.714 0 0 1 5.714 5.714c0 .631-.512 1.143-1.143 1.143H709.71a1.142 1.142 0 0 1-1.142-1.143Z" fill="#86E14E"/><path fill="#45DADD" d="M53.143 63.428h53.143v34.286H53.143z"/><rect x="85.714" y="70.285" width="12" height="12" rx="3.429" fill="#326190"/><path d="M63.429 80.57a3.429 3.429 0 0 1 3.428-3.43H72a3.429 3.429 0 0 1 3.429 3.43v17.142h-12V80.569Z" fill="#FF5252"/><rect x="56.572" y="23.998" width="6.857" height="22.286" rx="1.714" fill="#45DADD"/><path d="M48 103.427a5.714 5.714 0 0 1 5.715-5.714h52a5.714 5.714 0 0 1 5.714 5.714c0 .631-.512 1.143-1.143 1.143H49.143A1.143 1.143 0 0 1 48 103.427Z" fill="#86E14E"/><path d="M76.14 17.242a3.429 3.429 0 0 1 5.434 0l31.634 41.094c1.736 2.254.128 5.52-2.717 5.52H47.223c-2.845 0-4.452-3.266-2.716-5.52L76.14 17.242Z" fill="#D43135"/><path fill="#45DADD" d="M377.857 56.57H431v41.143h-53.143z"/><rect x="383" y="82.285" width="12" height="8.571" rx="3.429" fill="#F67B1B"/><rect x="415.572" y="71.998" width="8.571" height="8.571" rx="3.429" fill="#326190"/><path d="M398.429 80.571a3.428 3.428 0 0 1 3.428-3.428H407a3.429 3.429 0 0 1 3.429 3.428v17.143h-12V80.571Z" fill="#FF5252"/><rect x="420.714" y="35.998" width="6.857" height="17.143" rx="1.714" fill="#45DADD"/><path d="M372.714 103.427a5.715 5.715 0 0 1 5.715-5.714h52a5.714 5.714 0 0 1 5.714 5.714c0 .631-.512 1.143-1.143 1.143h-61.143a1.143 1.143 0 0 1-1.143-1.143Z" fill="#86E14E"/><path d="M401.189 33.156a3.428 3.428 0 0 1 4.764 0l30.116 29.09c2.218 2.143.701 5.895-2.382 5.895h-60.231c-3.083 0-4.6-3.752-2.382-5.894l30.115-29.09Z" fill="#F5C236"/><path fill="#BEC9D3" d="M202.286 55h65.143v42.857h-65.143z"/><path d="M202.232 33.182A3.428 3.428 0 0 1 205.426 31h57.149a3.43 3.43 0 0 1 3.194 2.182l6.692 17.143c.878 2.248-.781 4.675-3.194 4.675h-70.533c-2.414 0-4.072-2.427-3.194-4.675l6.692-17.143Z" fill="#45DADD"/><rect x="246.857" y="60.143" width="12" height="12" rx="3.429" fill="#326190"/><rect x="228" y="60.143" width="12" height="12" rx="3.429" fill="#F5C236"/><rect x="209.143" y="60.143" width="12" height="12" rx="3.429" fill="#F67B1B"/><rect x="209.143" y="79" width="12" height="12" rx="3.429" fill="#326190"/><rect x="246.857" y="79" width="12" height="12" rx="3.429" fill="#F67B1B"/><path d="M228 80.716a3.429 3.429 0 0 1 3.429-3.429h5.143A3.428 3.428 0 0 1 240 80.716v17.143h-12V80.716Z" fill="#FF5252"/><path d="M193.715 103.572a5.714 5.714 0 0 1 5.714-5.715h69.143a5.714 5.714 0 0 1 5.714 5.715c0 .631-.512 1.143-1.143 1.143h-78.286a1.142 1.142 0 0 1-1.142-1.143Z" fill="#86E14E"/><path d="M675.185 104.826h-6.05l-.065-3.142v-7.356h6.115v10.498Z" fill="#6B8822"/><rect x="658.285" y="68.57" width="27.178" height="27.09" rx="13.545" fill="#F67B1B"/><path d="M1324.35 104.826h6.05l.07-3.142v-7.356h-6.12v10.498Z" fill="#6B8822"/><rect width="27.178" height="27.09" rx="13.545" transform="matrix(-1 0 0 1 1341.25 68.57)" fill="#F67B1B"/><path d="M796.279 104.826h6.049l.066-3.142v-7.356h-6.115v10.498Z" fill="#6B8822"/><rect width="27.178" height="27.09" rx="13.545" transform="matrix(-1 0 0 1 813.178 68.57)" fill="#F67B1B"/><path d="M869.279 104.826h6.049l.066-3.142v-7.356h-6.115v10.498Z" fill="#6B8822"/><rect width="27.178" height="27.09" rx="13.545" transform="matrix(-1 0 0 1 886.178 68.57)" fill="#F67B1B"/><path d="M1089.28 104.826h6.05l.06-3.142v-7.356h-6.11v10.498Z" fill="#6B8822"/><rect width="27.178" height="27.09" rx="13.545" transform="matrix(-1 0 0 1 1106.18 68.57)" fill="#F67B1B"/><rect width="33.972" height="33.863" rx="16.931" transform="matrix(-1 -.00046 -.02932 .99957 839.822 41.16)" fill="#F5C236"/><path d="M819.099 74.557h6.811v29.454a398.032 398.032 0 0 0-6.811 4.227V74.557Z" fill="#2C69A6"/><rect width="33.972" height="33.863" rx="16.931" transform="matrix(-1 -.00046 -.02932 .99957 1089.97 41.16)" fill="#F5C236"/><path d="M1069.24 74.557h6.81v29.454a402.026 402.026 0 0 0-6.81 4.227V74.557Z" fill="#2C69A6"/><rect width="33.972" height="33.863" rx="16.931" transform="matrix(-1 -.00046 -.02932 .99957 1330.97 42.879)" fill="#F5C236"/><path d="M1310.24 76.272h6.81v29.454a395.71 395.71 0 0 0-6.81 4.227V76.272Zm84 5.14h6.81v29.454a408.548 408.548 0 0 0-6.81 4.227v-33.68Z" fill="#2C69A6"/><rect width="33.972" height="33.863" rx="16.931" transform="matrix(-1 -.00046 -.02932 .99957 1414.97 48.022)" fill="#F5C236"/><path fill="#45DADD" d="M1126.86 63.428h53.143v34.286h-53.143z"/><rect x="1159.43" y="70.285" width="12" height="12" rx="3.429" fill="#326190"/><path d="M1137.14 80.57a3.432 3.432 0 0 1 3.43-3.43h5.14c1.9 0 3.43 1.536 3.43 3.43v17.142h-12V80.569Z" fill="#FF5252"/><rect x="1130.29" y="23.998" width="6.857" height="22.286" rx="1.714" fill="#45DADD"/><path d="M1121.71 103.427a5.716 5.716 0 0 1 5.72-5.714h52c3.15 0 5.71 2.558 5.71 5.714 0 .631-.51 1.143-1.14 1.143h-61.14a1.15 1.15 0 0 1-1.15-1.143Z" fill="#86E14E"/><path d="M1149.85 17.242c1.38-1.783 4.07-1.783 5.44 0l31.63 41.094c1.74 2.254.13 5.52-2.71 5.52h-63.27c-2.85 0-4.45-3.266-2.72-5.52l31.63-41.094Z" fill="#D43135"/><path fill="#45DADD" d="M1201.86 56.57h53.143v41.143h-53.143z"/><rect x="1207" y="82.285" width="12" height="8.571" rx="3.429" fill="#F67B1B"/><rect x="1239.57" y="71.998" width="8.571" height="8.571" rx="3.429" fill="#326190"/><path d="M1222.43 80.571a3.426 3.426 0 0 1 3.43-3.428h5.14c1.89 0 3.43 1.535 3.43 3.428v17.143h-12V80.571Z" fill="#FF5252"/><rect x="1244.71" y="35.998" width="6.857" height="17.143" rx="1.714" fill="#45DADD"/><path d="M1196.71 103.427a5.716 5.716 0 0 1 5.72-5.714h52c3.15 0 5.71 2.558 5.71 5.714 0 .631-.51 1.143-1.14 1.143h-61.14a1.15 1.15 0 0 1-1.15-1.143Z" fill="#86E14E"/><path d="M1225.19 33.156a3.423 3.423 0 0 1 4.76 0l30.12 29.09c2.22 2.143.7 5.895-2.38 5.895h-60.23c-3.09 0-4.6-3.752-2.39-5.894l30.12-29.09Z" fill="#F5C236"/><path fill="#BEC9D3" d="M933.571 56h65.143v42.857h-65.143z"/><path d="M933.517 34.182A3.43 3.43 0 0 1 936.711 32h57.15c1.412 0 2.68.866 3.193 2.182l6.696 17.143c.87 2.248-.78 4.675-3.2 4.675h-70.531c-2.413 0-4.072-2.427-3.194-4.675l6.692-17.143Z" fill="#45DADD"/><rect x="978.143" y="61.143" width="12" height="12" rx="3.429" fill="#326190"/><rect x="959.286" y="61.143" width="12" height="12" rx="3.429" fill="#F5C236"/><rect x="940.428" y="61.143" width="12" height="12" rx="3.429" fill="#F67B1B"/><rect x="940.428" y="80" width="12" height="12" rx="3.429" fill="#326190"/><rect x="978.143" y="80" width="12" height="12" rx="3.429" fill="#F67B1B"/><path d="M959.286 81.716a3.428 3.428 0 0 1 3.428-3.429h5.143a3.429 3.429 0 0 1 3.429 3.429v17.143h-12V81.716Z" fill="#FF5252"/><path d="M925 104.572a5.714 5.714 0 0 1 5.714-5.715h69.143a5.715 5.715 0 0 1 5.713 5.715c0 .631-.51 1.143-1.14 1.143h-78.287a1.143 1.143 0 0 1-1.143-1.143Z" fill="#86E14E"/><path fill="#F5C236" d="M0 103h1440v17H0z"/></svg>