<?xml version="1.0" encoding="utf-8"?><svg viewBox="0 0 24 24" xmlns="http://www.w3.org/2000/svg" xmlns:xlink="http://www.w3.org/1999/xlink"><style>:root>svg{display:none}:root>svg:target{display:block}</style><svg fill="none" viewBox="0 0 24 24" id="keyboard-arrow-down" xmlns="http://www.w3.org/2000/svg"><path d="M7.41 8.59 12 13.17l4.59-4.58L18 10l-6 6-6-6 1.41-1.41Z" fill="#27323E"/></svg><svg fill="none" viewBox="0 0 24 24" id="phone" xmlns="http://www.w3.org/2000/svg"><path d="M6.62 10.79c1.44 2.83 3.76 5.14 6.59 6.59l2.2-2.2c.27-.27.67-.36 1.02-.24 1.12.37 2.33.57 3.57.57.55 0 1 .45 1 1V20c0 .55-.45 1-1 1-9.39 0-17-7.61-17-17 0-.55.45-1 1-1h3.5c.55 0 1 .45 1 1 0 1.25.2 2.45.57 3.57.11.35.03.74-.25 1.02l-2.2 2.2Z" fill="#000"/></svg><svg fill="none" viewBox="0 0 24 24" id="search" xmlns="http://www.w3.org/2000/svg"><path d="M15.5 14h-.79l-.28-.27A6.471 6.471 0 0 0 16 9.5 6.5 6.5 0 1 0 9.5 16c1.61 0 3.09-.59 4.23-1.57l.27.28v.79l5 4.99L20.49 19l-4.99-5Zm-6 0C7.01 14 5 11.99 5 9.5S7.01 5 9.5 5 14 7.01 14 9.5 11.99 14 9.5 14Z" fill="#000"/></svg><svg fill="none" viewBox="0 0 24 24" id="telegram" xmlns="http://www.w3.org/2000/svg"><path d="M20.848 3.532c-.1.03-.2.06-.3.101a8900.95 8900.95 0 0 0-17.927 7.05c-.08.03-.17.07-.24.11a.619.619 0 0 0-.38.627c.01.292.17.484.43.595.07.03.15.05.23.071 1.41.424 2.821.838 4.232 1.252.17.05.26.142.31.313.53 1.717 1.07 3.434 1.6 5.14.26.829.91.99 1.511.374.7-.717 1.4-1.434 2.09-2.16.15-.162.241-.152.411-.031 1.45 1.08 2.901 2.151 4.352 3.232.78.575 1.54.282 1.73-.667a7707.8 7707.8 0 0 1 2.712-13.068c.14-.667.27-1.333.39-1.909.03-.727-.54-1.191-1.15-1.03Zm-2.47 3.424c-.47.414-.931.838-1.401 1.252l-6.933 6.18a.868.868 0 0 0-.29.586c-.09.849-.18 1.697-.28 2.545-.01.06-.02.122-.04.182a.17.17 0 0 1-.06.08c-.05.021-.08-.02-.1-.06l-.06-.181c-.41-1.334-.82-2.657-1.231-3.99-.03-.1-.05-.212-.06-.252-.01-.303.14-.434.33-.546 1.19-.747 2.381-1.484 3.562-2.231 2.04-1.273 4.071-2.545 6.112-3.828.06-.04.12-.07.18-.111.12-.08.26-.121.36.02.1.152.02.263-.09.354Z" fill="#000"/></svg><svg fill="none" viewBox="0 0 24 24" id="vkontacte" xmlns="http://www.w3.org/2000/svg"><path d="M20.121 14.483c-.51-.602-1.27-1.265-1.5-1.58-.321-.429-.231-.602 0-.98-.02 0 2.65-3.802 2.92-5.077.151-.469 0-.815-.66-.815h-2.18c-.551 0-.801.295-.951.622 0 0-1.121 2.732-2.692 4.506-.51.51-.74.683-1.02.683-.15 0-.34-.173-.34-.642V6.816c0-.55-.171-.816-.641-.816H9.635c-.34 0-.55.255-.55.51 0 .53.78.662.87 2.151v3.242c0 .704-.13.836-.4.836-.74 0-2.542-2.753-3.623-5.893-.22-.601-.44-.836-.99-.836H2.74c-.63 0-.74.296-.74.612 0 .581.74 3.477 3.452 7.32 1.801 2.62 4.363 4.038 6.674 4.038 1.401 0 1.571-.316 1.571-.857v-1.988c0-.642.13-.744.57-.744.32 0 .891.173 2.182 1.427C17.929 17.317 18.189 18 19.01 18h2.182c.64 0 .93-.316.76-.938-.18-.622-.9-1.52-1.831-2.58Z" fill="#000"/></svg></svg>