<svg width="84" height="67" fill="none" xmlns="http://www.w3.org/2000/svg"><path d="M58.652 8.916c.733 0 1.328.592 1.328 1.323v12.366c0 .731-.594 1.324-1.328 1.324h-3.29a1.325 1.325 0 0 1-1.327-1.324V10.24c0-.73.594-1.323 1.327-1.323h3.29Zm1.681 16.614c.733 0 1.328.592 1.328 1.323v22.056c0 .731-.595 1.324-1.328 1.324H47.305V36.108a.99.99 0 0 0-.991-.988h-8.07a.99.99 0 0 0-.991.988v14.125H23.845a1.326 1.326 0 0 1-1.327-1.324V26.853c0-.731.594-1.323 1.327-1.323h36.488Z" fill="#45DADD"/><path d="M41.884 2.91a.833.833 0 0 1 1.188.01l22.231 22.933a.833.833 0 0 1-.598 1.413H19.56a.833.833 0 0 1-.59-1.422L41.885 2.91Z" fill="#D43135"/><path d="M60.972 2.108c0 1.891-2.204 3.3-3.69 4.575a.735.735 0 0 1-.949.005c-1.535-1.301-3.685-2.682-3.685-4.58 0-2.106 2.601-2.78 4.162-1.35 1.517-1.39 4.162-.756 4.162 1.35Z" fill="#FF5252"/><rect x="26.324" y="34.177" width="7.397" height="7.373" rx=".833" fill="#F67B1B"/><rect x="51.489" y="29.884" width="5.945" height="7.309" rx=".833" fill="#2B69A6"/><path d="M68.63 48.64a260.414 260.414 0 0 0-3.528 1.567h-.038v-6.124h3.567v4.558Z" fill="#6B8822"/><rect x="58.773" y="29.059" width="15.854" height="15.803" rx="7.901" fill="#F67B1B"/><rect width="19.817" height="19.753" rx="9.877" transform="matrix(1 -.00046 .02932 .99957 5.794 16.51)" fill="#F5C236"/><path d="M8.773 52.897c6.794-.147 18.371-.15 24.982 1.247 4.378.925 6.578 2.829 7.672 4.648.159.263 1.689.263 1.848 0 1.094-1.82 3.52-3.723 7.898-4.648 6.389-1.35 17.415-1.393 24.28-1.261-.946-2.756-3.349-4.824-6.413-5.133-5.596-.563-14.598-1.19-26.924-1.19-12.326 0-21.329.627-26.925 1.19-3.07.31-5.475 2.385-6.418 5.147Z" fill="#86E14E"/><path fill-rule="evenodd" clip-rule="evenodd" d="M13.91 35.993h3.973V52.86a234.442 234.442 0 0 0-3.974-.026v-16.84Z" fill="#2C69A6"/><path d="M1.86 60.399A1.345 1.345 0 0 0 .82 62.88l34.751.598c.192.081.35.223.469.393a4.932 4.932 0 0 0 4.044 2.106h4.148a4.93 4.93 0 0 0 4.146-2.258 1.11 1.11 0 0 1 .492-.429l34.203-.365c.561-.238.926-.788.926-1.396 0-.9-.916-1.512-1.751-1.17l-35.273.184c-.29.12-.508.373-.675.639-.4.635-1.494 1.72-4.301 1.72-2.66 0-3.638-.974-3.995-1.617-.177-.318-.411-.639-.75-.776l-35.394-.11Z" fill="#326190"/><path d="M68.849 60.26a.833.833 0 0 1 .78-.814l4.442-.28c.5-.03.915.383.885.882l-.316 5.283a.333.333 0 0 1-.501.268l-1.904-1.116a.5.5 0 0 0-.574.048l-2.39 1.999a.333.333 0 0 1-.548-.263l.126-6.007Z" fill="#D43135"/></svg>