<svg width="75" height="75" fill="none" xmlns="http://www.w3.org/2000/svg"><mask id="a" style="mask-type:alpha" maskUnits="userSpaceOnUse" x="0" y="0" width="75" height="75"><path fill="#fff" d="M0 0h75v75H0z"/></mask><g opacity=".5" stroke="#fff" mask="url(#a)"><path d="m-.147-2.981-1.491-.615c-1.234-.51-2.468.725-1.96 1.958l.616 1.491-1.046 1.228C-4.893 2.097-4.1 3.652-2.77 3.55l1.608-.124.845 1.374c.699 1.137 2.422.864 2.736-.433l.378-1.568 1.568-.379C5.662 2.106 5.935.382 4.8-.317L3.425-1.16l.124-1.609C3.65-4.1 2.096-4.892 1.08-4.027L-.147-2.981Z" stroke-width="1.5"/><path d="m6.87 26.274.632-.027.028-.633c.051-1.17.74-2.16 1.611-2.637.846-.464 1.818-.434 2.599.346.727.728.99 1.84 1.001 3.24.008.935-.093 1.885-.194 2.835-.052.489-.104.978-.141 1.465a.325.325 0 0 1-.29.296c-.471.039-.941.09-1.409.14-.986.107-1.962.212-2.912.202-1.384-.015-2.482-.283-3.216-1.017-.787-.788-.826-1.763-.374-2.602.465-.862 1.449-1.555 2.665-1.608Z" stroke-width="1.383"/><path d="m27.695 6.298-1.49-.615c-1.234-.509-2.468.725-1.96 1.958l.615 1.492-1.045 1.228c-.865 1.015-.073 2.57 1.257 2.468l1.608-.125.845 1.374c.7 1.137 2.423.864 2.736-.433l.379-1.568 1.568-.379c1.297-.313 1.57-2.037.433-2.735l-1.374-.845.124-1.608c.103-1.33-1.452-2.123-2.468-1.258l-1.228 1.046ZM-.33 71.448l-1.492-.615c-1.233-.509-2.467.725-1.958 1.959l.615 1.491-1.046 1.228c-.865 1.016-.073 2.57 1.257 2.468l1.609-.124.844 1.374c.7 1.136 2.423.864 2.736-.433l.38-1.568 1.567-.38c1.297-.313 1.57-2.036.433-2.735l-1.374-.845.124-1.608c.103-1.33-1.452-2.123-2.468-1.257L-.33 71.448Z" stroke-width="1.5"/><path d="m16.15 54.116.633-.028.028-.633c.051-1.17.74-2.158 1.61-2.636.847-.464 1.819-.435 2.6.346.727.728.99 1.84 1.001 3.239.007.936-.093 1.886-.194 2.835-.052.49-.104.979-.141 1.466a.325.325 0 0 1-.291.296c-.47.039-.94.09-1.408.14-.986.107-1.962.212-2.913.202-1.383-.015-2.481-.283-3.215-1.017-.788-.788-.826-1.763-.374-2.602.465-.862 1.448-1.555 2.664-1.608Z" stroke-width="1.383"/><path d="m36.976 34.142-1.491-.615c-1.233-.51-2.468.725-1.959 1.958l.615 1.491-1.045 1.228c-.865 1.016-.073 2.571 1.257 2.468l1.608-.124.845 1.374c.699 1.137 2.422.864 2.736-.433l.379-1.568 1.568-.379c1.296-.313 1.57-2.037.433-2.736l-1.374-.844.124-1.609c.103-1.33-1.452-2.122-2.468-1.257l-1.228 1.046Z" stroke-width="1.5"/><path d="m53.457 16.811.633-.027.027-.633c.052-1.17.74-2.159 1.611-2.637.846-.464 1.818-.434 2.6.347.727.727.99 1.839 1 3.238.008.937-.093 1.886-.194 2.836-.052.489-.103.978-.14 1.465a.325.325 0 0 1-.291.296c-.47.04-.94.09-1.408.14-.986.107-1.962.212-2.913.202-1.383-.015-2.481-.283-3.215-1.017-.788-.788-.827-1.763-.375-2.602.465-.862 1.449-1.554 2.665-1.608Z" stroke-width="1.383"/><path d="M74.283-3.165 72.79-3.78c-1.233-.509-2.467.725-1.958 1.959l.615 1.49-1.045 1.23c-.865 1.016-.073 2.57 1.258 2.468l1.608-.124.845 1.374c.698 1.136 2.422.863 2.736-.434l.378-1.568 1.568-.378c1.297-.314 1.57-2.037.433-2.736l-1.374-.845.125-1.608c.102-1.33-1.453-2.123-2.468-1.258l-1.228 1.046Z" stroke-width="1.5"/><path d="m43.993 63.397.632-.027.028-.633c.051-1.17.74-2.159 1.611-2.637.846-.464 1.818-.434 2.599.346.727.728.99 1.84 1.001 3.24.008.935-.093 1.885-.194 2.835a49.91 49.91 0 0 0-.141 1.465.325.325 0 0 1-.29.296c-.471.04-.941.09-1.408.14-.987.107-1.963.212-2.913.202-1.384-.015-2.482-.283-3.216-1.017-.787-.788-.826-1.763-.374-2.602.465-.862 1.449-1.554 2.665-1.608Z" stroke-width="1.383"/><path d="m64.818 43.421-1.49-.615c-1.234-.509-2.468.725-1.96 1.959l.616 1.49-1.046 1.229c-.865 1.015-.073 2.57 1.257 2.468l1.608-.124.845 1.373c.7 1.137 2.423.864 2.736-.433l.379-1.568 1.568-.379c1.297-.313 1.57-2.036.433-2.735l-1.374-.845.124-1.608c.103-1.33-1.452-2.123-2.468-1.258l-1.228 1.046Zm9.281 27.844-1.491-.615c-1.234-.51-2.468.725-1.959 1.958l.615 1.491-1.045 1.228c-.865 1.016-.073 2.571 1.257 2.468l1.608-.124.845 1.374c.699 1.137 2.422.864 2.736-.433l.379-1.568 1.568-.379c1.297-.313 1.57-2.037.433-2.736l-1.374-.844.124-1.608c.103-1.33-1.452-2.123-2.468-1.258l-1.228 1.046Z" stroke-width="1.5"/></g></svg>