<svg width="330" height="55" viewBox="0 0 330 55" fill="none" xmlns="http://www.w3.org/2000/svg">
<mask id="mask0_436_1696" style="mask-type:alpha" maskUnits="userSpaceOnUse" x="0" y="0" width="330" height="55">
<rect width="330" height="55" fill="#D9D9D9"/>
</mask>
<g mask="url(#mask0_436_1696)">
<path fill-rule="evenodd" clip-rule="evenodd" d="M110.362 7.86803C113.02 3.17052 118.062 0 123.845 0C130.02 0 135.351 3.61604 137.835 8.84628C145.429 10.534 152.323 14.081 158.014 18.9849C161.575 16.7641 165.781 15.4809 170.286 15.4809C172.208 15.4809 174.074 15.7142 175.86 16.1541C178.428 11.1581 183.633 7.74029 189.637 7.74029C195.745 7.74029 201.026 11.2774 203.545 16.4149C206.554 15.8024 209.668 15.4809 212.858 15.4809C218.063 15.4809 223.068 16.3372 227.74 17.9166C230.147 16.3748 233.008 15.4809 236.079 15.4809C244.628 15.4809 251.559 22.4118 251.559 30.9615C251.559 31.0691 251.558 31.1764 251.556 31.2834C252.816 31.0719 254.11 30.9618 255.43 30.9618C260.561 30.9618 265.303 32.626 269.146 35.4442C274.68 28.8553 282.608 24.3455 291.592 23.2554C294.326 20.8259 297.926 19.3501 301.871 19.3501C306.719 19.3501 311.047 21.5786 313.885 25.067C316.069 23.8896 318.567 23.2214 321.222 23.2214C329.771 23.2214 336.702 30.1523 336.702 38.7019C336.702 43.9611 334.08 48.6078 330.071 51.4055C330.46 53.4882 330.663 55.636 330.663 57.8313C330.663 77.0681 315.068 92.6626 295.831 92.6626C282.87 92.6626 271.563 85.5835 265.564 75.081C262.852 76.3988 259.845 77.2041 256.668 77.3711C250.302 95.4257 233.091 108.364 212.858 108.364C192.174 108.364 174.649 94.8432 168.638 76.1576C160.8 90.7229 145.414 100.624 127.715 100.624C110.985 100.624 96.3218 91.7781 88.1464 78.5088C80.5823 93.9 64.749 104.493 46.4415 104.493C29.2062 104.493 14.1637 95.1044 6.14947 81.1623C5.39953 81.2354 4.63915 81.2728 3.87003 81.2728C-8.9545 81.2728 -19.3508 70.8764 -19.3508 58.0519C-19.3508 47.9212 -12.8633 39.3057 -3.81615 36.1333C-3.85192 35.7038 -3.87017 35.2694 -3.87017 34.8307C-3.87017 26.281 3.06072 19.3501 11.6104 19.3501C14.0819 19.3501 16.418 19.9293 18.4906 20.9593C26.2672 15.09 35.9479 11.6097 46.4415 11.6097C57.3007 11.6097 67.2895 15.3367 75.1983 21.5814C78.2127 20.1506 81.5844 19.3501 85.143 19.3501C87.931 19.3501 90.6042 19.8414 93.0807 20.7422C94.267 13.3708 100.658 7.74029 108.364 7.74029C109.041 7.74029 109.708 7.78375 110.362 7.86803Z" fill="white"/>
</g>
</svg>
