<svg width="1907" height="37" viewBox="0 0 1907 37" fill="none" xmlns="http://www.w3.org/2000/svg">
<mask id="mask0_305_3940" style="mask-type:alpha" maskUnits="userSpaceOnUse" x="0" y="0" width="1907" height="37">
<rect width="1907" height="37" fill="white"/>
</mask>
<g mask="url(#mask0_305_3940)">
<path fill-rule="evenodd" clip-rule="evenodd" d="M135.861 -128.382C85.1709 -136.455 27.4957 -108.002 7.03938 -64.8292C-13.4169 -21.6566 11.0921 19.8863 61.7819 27.9595C96.2347 33.4467 133.915 22.0597 160.942 0.646112C161.902 2.29209 163.043 3.90374 164.369 5.46868C179.485 23.3019 212.964 28.3165 239.148 16.6691C242.085 15.3623 244.806 13.9013 247.301 12.312C259.908 16.4527 273.653 16.5392 284.754 11.601C284.823 11.5706 284.891 11.54 284.959 11.5093C289.465 15.3438 294.578 18.8758 300.287 22.0292C342.956 45.5985 403.53 39.5474 439.481 9.14353C455.061 19.518 476.052 22.5858 491.754 15.601C496.476 13.5009 500.294 10.6808 503.171 7.36229C521.415 12.4278 540.459 13.6468 558.005 10.4292C574.825 17.8047 597.364 18.0241 616.147 9.6684C618.815 8.48189 621.303 7.16825 623.606 5.74683C638.833 23.3538 672.1 28.2557 698.146 16.6691C704.016 14.0579 709.022 10.8308 713.084 7.19442C747.757 33.5846 797.562 42.2584 834.221 25.9514C843.327 21.9005 850.903 16.6279 856.889 10.4643C870.133 15.42 884.94 15.855 896.754 10.6C899.548 9.35708 902.026 7.86194 904.18 6.16057C938.344 26.9506 983.378 32.3425 1017.72 17.065C1024.42 14.0838 1030.34 10.4837 1035.45 6.3857C1047.4 16.3515 1063.11 21.8348 1077.17 19.725C1084.1 18.6844 1089.79 15.9234 1093.98 11.9496C1127.04 30.4809 1168.54 35.0446 1200.22 20.9524C1207.85 17.5593 1214.4 13.3091 1219.85 8.39611C1236.97 17.7063 1261.77 18.7347 1282.15 9.6691C1283.46 9.08343 1284.74 8.46676 1285.97 7.82144C1325.45 40.2033 1389.08 45.0492 1428.52 18.5556C1430.35 17.3271 1432.1 16.0526 1433.76 14.7359C1448.75 22.9841 1467.45 24.9647 1481.76 18.601C1488.12 15.7689 1492.85 11.6274 1495.83 6.72003C1530.53 30.3199 1578.56 37.1536 1614.72 21.065C1623.36 17.2221 1630.7 12.3507 1636.68 6.71042C1650.91 13.2615 1667.67 14.4213 1680.75 8.60098C1681.58 8.23521 1682.37 7.84758 1683.14 7.43931C1721.15 39.359 1781.93 46.4122 1821.53 22.7735C1825.99 20.1095 1830 17.1656 1833.55 13.989C1848.15 17.0821 1864.85 15.7344 1879.32 9.29701C1905.5 -2.35033 1914.48 -26.2491 1899.36 -44.0823C1893.08 -51.4928 1883.63 -56.6899 1872.84 -59.3976C1874.61 -67.7714 1872.54 -76.4583 1866.1 -84.0468C1853.84 -98.5126 1829.5 -104.544 1806.76 -100.089C1769.3 -121.606 1719.41 -124.041 1685.27 -103.66C1666.65 -92.5387 1655.91 -76.5373 1653.26 -59.1117C1652.83 -59.1759 1652.4 -59.2352 1651.96 -59.2897C1648.73 -68.3937 1643.49 -77.463 1636.17 -86.1027C1602.98 -125.258 1539.57 -140.761 1494.54 -120.73C1465.41 -107.772 1451.11 -83.1204 1453.62 -56.7273C1448.9 -68.2558 1440.67 -79.3972 1428.93 -89.177C1389.5 -122.038 1325.39 -127.082 1285.73 -100.444C1283.29 -98.8008 1280.99 -97.0755 1278.84 -95.2768C1263.31 -99.6361 1244.71 -98.709 1228.81 -91.634C1225.01 -89.9453 1221.57 -87.999 1218.52 -85.8511C1185.18 -124.461 1123.41 -140.135 1080.04 -120.842C1061.58 -112.63 1049.4 -99.3983 1044.02 -83.8994C1042.52 -85.9878 1040.9 -88.0573 1039.17 -90.1027C1005.98 -129.258 942.567 -144.761 897.536 -124.73C873.875 -114.204 859.996 -95.9631 856.966 -75.3401C855.765 -76.9398 854.498 -78.5285 853.163 -80.1037C819.974 -119.259 757.684 -135.26 714.035 -115.843C686.302 -103.507 672.766 -79.8412 675.093 -54.1801C664.418 -54.3671 653.384 -52.3481 643.408 -47.9106C640.741 -46.7241 638.252 -45.4104 635.949 -43.989C631.429 -49.2157 625.32 -53.3228 618.281 -56.2113C617.267 -71.3918 610.677 -87.3391 598.163 -102.103C564.975 -141.258 502.685 -157.259 459.035 -137.842C442.208 -130.357 430.608 -118.701 424.606 -104.959C379.794 -128.222 316.651 -119.881 282.277 -85.7685C272.695 -76.2596 266.343 -65.7343 263.093 -54.953C251.744 -57.7842 239.844 -57.3506 230.016 -52.9787C229.842 -52.9012 229.669 -52.8227 229.497 -52.7432C218.939 -54.8714 207.325 -54.6914 196.274 -51.9609C204.384 -88.8151 180.088 -121.338 135.861 -128.382Z" fill="white"/>
</g>
</svg>
