<svg width="512" height="512" viewBox="0 0 512 512" fill="none" xmlns="http://www.w3.org/2000/svg">
<path d="M355.108 109.228C359.472 109.228 363.01 112.765 363.01 117.128V190.954C363.01 195.318 359.472 198.855 355.108 198.855H335.525C331.16 198.855 327.622 195.318 327.622 190.954V117.128C327.622 112.765 331.16 109.228 335.525 109.228H355.108Z" fill="#45DADD"/>
<path d="M365.111 208.413C369.476 208.413 373.014 211.95 373.014 216.314V347.992C373.014 352.356 369.476 355.893 365.111 355.893H287.563V271.568C287.563 268.312 284.923 265.672 281.665 265.672H233.628C230.37 265.672 227.73 268.312 227.73 271.568V355.893H147.923C143.559 355.893 140.021 352.356 140.021 347.992V216.314C140.021 211.95 143.559 208.413 147.923 208.413H365.111Z" fill="#45DADD"/>
<path d="M255.265 73.4101C257.24 71.4274 260.458 71.4517 262.403 73.464L394.662 210.308C397.729 213.482 395.48 218.783 391.066 218.783H122.495C118.045 218.783 115.812 213.407 118.953 210.254L255.265 73.4101Z" fill="#D53135"/>
<path d="M368.915 68.5825C368.915 79.8632 355.823 88.2723 346.982 95.8762C345.356 97.275 342.913 97.2925 341.278 95.9036C332.143 88.1424 319.372 79.905 319.372 68.5825C319.372 56.0124 334.854 51.9865 344.143 60.5216C353.175 52.2236 368.915 56.0124 368.915 68.5825Z" fill="#FF5252"/>
<rect x="162.686" y="260.039" width="44.0286" height="44.0178" rx="5" fill="#F67B1B"/>
<rect x="312.474" y="234.411" width="35.388" height="43.6345" rx="5" fill="#3A74AD"/>
<path d="M414.513 346.393C407.769 349.334 400.751 352.452 393.508 355.74H393.28V319.181H414.513V346.393Z" fill="#6B8822"/>
<rect x="355.833" y="229.482" width="94.368" height="94.3448" rx="47.1724" fill="#F77B1B"/>
<rect width="117.96" height="117.931" rx="58.9655" transform="matrix(1 -0.000461196 0.0293193 0.99957 40.4907 154.569)" fill="#F5C336"/>
<path d="M58.2285 371.804C98.666 370.924 167.58 370.91 206.929 379.249C232.987 384.772 246.08 396.135 252.595 406.994C253.539 408.568 262.648 408.568 263.592 406.994C270.106 396.135 284.551 384.772 310.609 379.249C348.634 371.191 414.265 370.932 455.13 371.718C449.502 355.267 435.197 342.917 416.96 341.076C383.651 337.714 330.064 333.966 256.694 333.967C183.325 333.967 129.738 337.715 96.4284 341.076C78.1596 342.919 63.8367 355.31 58.2285 371.804Z" fill="#86E14E"/>
<path fill-rule="evenodd" clip-rule="evenodd" d="M88.7773 270.882H112.428V371.579C104.328 371.453 96.3778 371.41 88.7773 371.426V270.882Z" fill="#2C69A6"/>
<path d="M17.067 416.587C11.7842 414.43 6 418.315 6 424.02C6 427.238 7.9225 430.146 10.8845 431.407L217.738 434.976C218.878 435.462 219.822 436.305 220.53 437.323C225.898 445.033 234.801 449.895 244.603 449.895H269.292C279.473 449.895 288.685 444.649 293.972 436.414C294.688 435.299 295.679 434.373 296.898 433.854L500.488 431.674C503.83 430.251 506 426.97 506 423.338C506 417.965 500.546 414.311 495.575 416.354L285.622 417.451C283.888 418.164 282.598 419.679 281.602 421.266C279.221 425.061 272.708 431.54 256 431.54C240.171 431.54 234.343 425.724 232.221 421.886C231.168 419.982 229.771 418.071 227.757 417.249L17.067 416.587Z" fill="#326190"/>
<path d="M415.815 415.783C415.869 413.185 417.904 411.062 420.498 410.899L446.858 409.236C449.857 409.047 452.344 411.526 452.166 414.525L450.288 446.015C450.199 447.506 448.567 448.376 447.279 447.619L435.987 440.984C434.893 440.341 433.512 440.456 432.54 441.271L418.354 453.168C417.037 454.272 415.033 453.311 415.069 451.593L415.815 415.783Z" fill="#D43135"/>
</svg>
