<svg width="1440" height="120" viewBox="0 0 1440 120" fill="none" xmlns="http://www.w3.org/2000/svg">
<path d="M27.1854 104.826H21.136L21.0703 101.684V94.3281H27.1854V104.826Z" fill="#6B8822"/>
<rect x="10.2856" y="68.5703" width="27.178" height="27.0904" rx="13.5452" fill="#F67B1B"/>
<path d="M295.278 105.255H301.328L301.393 102.114V94.7578H295.278V105.255Z" fill="#6B8822"/>
<rect width="27.178" height="27.0904" rx="13.5452" transform="matrix(-1 0 0 1 312.178 69)" fill="#F67B1B"/>
<path d="M494.279 104.826H500.328L500.394 101.684V94.3281H494.279V104.826Z" fill="#6B8822"/>
<rect width="27.178" height="27.0904" rx="13.5452" transform="matrix(-1 0 0 1 511.178 68.5703)" fill="#F67B1B"/>
<path d="M574.136 104.826H580.186L580.251 101.684V94.3281H574.136V104.826Z" fill="#6B8822"/>
<rect width="27.178" height="27.0904" rx="13.5452" transform="matrix(-1 0 0 1 591.036 68.5703)" fill="#F67B1B"/>
<path d="M133.707 104.826H139.757L139.822 101.684V94.3281H133.707V104.826Z" fill="#6B8822"/>
<rect width="27.178" height="27.0904" rx="13.5452" transform="matrix(-1 0 0 1 150.607 68.5703)" fill="#F67B1B"/>
<rect width="33.9725" height="33.8631" rx="16.9315" transform="matrix(1 -0.000461195 0.0293194 0.99957 20.5718 48.0215)" fill="#F5C236"/>
<path d="M41.2948 81.4121H34.4834V110.866C36.6457 112.178 38.9237 113.589 41.2948 115.093V81.4121Z" fill="#2C69A6"/>
<rect width="33.9725" height="33.8631" rx="16.9315" transform="matrix(-1 -0.000461195 -0.0293194 0.99957 297.251 50.0156)" fill="#F5C236"/>
<path d="M276.528 83.4082H283.339V112.862C281.177 114.174 278.899 115.585 276.528 117.089V83.4082Z" fill="#2C69A6"/>
<rect width="33.9725" height="33.8631" rx="16.9315" transform="matrix(-1 -0.000461195 -0.0293194 0.99957 482.965 42.8789)" fill="#F5C236"/>
<path d="M462.242 76.2715H469.053V105.726C466.891 107.037 464.613 108.448 462.242 109.953V76.2715Z" fill="#2C69A6"/>
<rect width="33.9725" height="33.8631" rx="16.9315" transform="matrix(-1 -0.000461195 -0.0293194 0.99957 638.251 48.0215)" fill="#F5C236"/>
<path d="M617.527 81.4121H624.339V110.866C622.177 112.178 619.899 113.589 617.527 115.093V81.4121Z" fill="#2C69A6"/>
<path d="M726.53 40.2832H748.891L754.853 96.8546H720.568L726.53 40.2832Z" fill="#F5C236"/>
<path fill-rule="evenodd" clip-rule="evenodd" d="M767.053 13.609C767.859 12.9731 767.929 11.7769 767.203 11.0513L756.654 0.502126C755.928 -0.223477 754.732 -0.153352 754.096 0.652062L738.197 20.7907C737.511 21.6601 736.193 21.6601 735.506 20.7907L719.609 0.653932C718.973 -0.151482 717.777 -0.221604 717.051 0.503999L706.502 11.0531C705.777 11.7787 705.847 12.975 706.652 13.6108L726.791 29.5096C727.66 30.196 727.66 31.5143 726.791 32.2006L706.653 48.0985C705.848 48.7344 705.778 49.9306 706.503 50.6562L717.052 61.2054C717.778 61.931 718.974 61.8608 719.61 61.0554L735.507 40.9197C736.193 40.0503 737.511 40.0503 738.198 40.9197L754.098 61.0594C754.733 61.8648 755.93 61.9349 756.655 61.2093L767.204 50.6602C767.93 49.9346 767.86 48.7384 767.054 48.1025L746.912 32.2008C746.043 31.5144 746.043 30.1961 746.912 29.5098L767.053 13.609ZM736.853 30.8537C736.853 30.8539 736.853 30.8543 736.853 30.8545L736.855 30.8567C736.856 30.8569 736.856 30.8569 736.856 30.8567V30.8567C736.856 30.8565 736.856 30.8561 736.856 30.8559L736.854 30.8537C736.854 30.8535 736.853 30.8535 736.853 30.8537V30.8537Z" fill="#FF5252"/>
<path d="M732.171 26.1797C734.943 23.4086 739.435 23.4086 742.207 26.1797V26.1797C744.978 28.9509 744.978 33.4438 742.207 36.2149V36.2149C739.435 38.9861 734.943 38.9861 732.171 36.2149V36.2149C729.4 33.4438 729.4 28.9509 732.171 26.1797V26.1797Z" fill="#D43135"/>
<path d="M734.616 28.6222C736.037 27.201 738.341 27.201 739.762 28.6222V28.6222C741.184 30.0435 741.184 32.3478 739.762 33.7691V33.7691C738.341 35.1903 736.037 35.1903 734.616 33.7691V33.7691C733.194 32.3478 733.194 30.0435 734.616 28.6222V28.6222Z" fill="#FF5252"/>
<path d="M732.256 81.8407C732.256 79.9471 733.791 78.4121 735.685 78.4121H739.258C741.151 78.4121 742.686 79.9471 742.686 81.8407V97.1864H732.256V81.8407Z" fill="#45DADD"/>
<rect x="734.344" y="63.084" width="6.25811" height="6.2581" rx="3.12905" fill="#F67B1B"/>
<rect x="734.344" y="50.5684" width="6.25811" height="6.2581" rx="3.12905" fill="#326190"/>
<path d="M708.568 102.57C708.568 99.4138 711.126 96.8555 714.282 96.8555H759.425C762.581 96.8555 765.139 99.4138 765.139 102.57V102.57C765.139 103.201 764.627 103.713 763.996 103.713H709.71C709.079 103.713 708.568 103.201 708.568 102.57V102.57Z" fill="#86E14E"/>
<rect x="53.1431" y="63.4277" width="53.1429" height="34.2857" fill="#45DADD"/>
<rect x="85.7144" y="70.2852" width="12" height="12" rx="3.42857" fill="#326190"/>
<path d="M63.429 80.5692C63.429 78.6756 64.964 77.1406 66.8575 77.1406H72.0004C73.8939 77.1406 75.429 78.6756 75.429 80.5692V97.712H63.429V80.5692Z" fill="#FF5252"/>
<rect x="56.5715" y="23.998" width="6.85714" height="22.2857" rx="1.71428" fill="#45DADD"/>
<path d="M48.0002 103.427C48.0002 100.271 50.5586 97.7129 53.7145 97.7129H105.715C108.87 97.7129 111.429 100.271 111.429 103.427V103.427C111.429 104.058 110.917 104.57 110.286 104.57H49.1431C48.5119 104.57 48.0002 104.058 48.0002 103.427V103.427Z" fill="#86E14E"/>
<path d="M76.1405 17.2421C77.513 15.4593 80.2017 15.4593 81.5741 17.2421L113.208 58.3357C114.944 60.5902 113.336 63.8557 110.491 63.8557H47.2234C44.3783 63.8557 42.7711 60.5902 44.5066 58.3357L76.1405 17.2421Z" fill="#D43135"/>
<rect x="377.857" y="56.5703" width="53.1429" height="41.1428" fill="#45DADD"/>
<rect x="383" y="82.2852" width="12" height="8.57142" rx="3.42857" fill="#F67B1B"/>
<rect x="415.572" y="71.998" width="8.57143" height="8.57142" rx="3.42857" fill="#326190"/>
<path d="M398.429 80.5711C398.429 78.6776 399.964 77.1426 401.857 77.1426H407C408.894 77.1426 410.429 78.6776 410.429 80.5711V97.714H398.429V80.5711Z" fill="#FF5252"/>
<rect x="420.714" y="35.998" width="6.85714" height="17.1428" rx="1.71428" fill="#45DADD"/>
<path d="M372.714 103.427C372.714 100.271 375.273 97.7129 378.429 97.7129H430.429C433.585 97.7129 436.143 100.271 436.143 103.427V103.427C436.143 104.058 435.631 104.57 435 104.57H373.857C373.226 104.57 372.714 104.058 372.714 103.427V103.427Z" fill="#86E14E"/>
<path d="M401.189 33.1564C402.518 31.8729 404.625 31.8729 405.953 33.1564L436.069 62.2466C438.287 64.3887 436.77 68.1411 433.687 68.1411H373.456C370.373 68.1411 368.856 64.3887 371.074 62.2466L401.189 33.1564Z" fill="#F5C236"/>
<rect x="202.286" y="55" width="65.1429" height="42.8571" fill="#BEC9D3"/>
<path d="M202.232 33.1818C202.745 31.8661 204.013 31 205.426 31H262.575C263.987 31 265.255 31.8661 265.769 33.1818L272.461 50.3246C273.339 52.5728 271.68 55 269.267 55H198.734C196.32 55 194.662 52.5728 195.54 50.3246L202.232 33.1818Z" fill="#45DADD"/>
<rect x="246.857" y="60.1426" width="12" height="12" rx="3.42857" fill="#326190"/>
<rect x="228" y="60.1426" width="12" height="12" rx="3.42857" fill="#F5C236"/>
<rect x="209.143" y="60.1426" width="12" height="12" rx="3.42857" fill="#F67B1B"/>
<rect x="209.143" y="79" width="12" height="12" rx="3.42857" fill="#326190"/>
<rect x="246.857" y="79" width="12" height="12" rx="3.42857" fill="#F67B1B"/>
<path d="M228 80.7157C228 78.8221 229.535 77.2871 231.429 77.2871H236.572C238.465 77.2871 240 78.8221 240 80.7157V97.8585H228V80.7157Z" fill="#FF5252"/>
<path d="M193.715 103.572C193.715 100.416 196.273 97.8574 199.429 97.8574H268.572C271.728 97.8574 274.286 100.416 274.286 103.572V103.572C274.286 104.203 273.774 104.715 273.143 104.715H194.857C194.226 104.715 193.715 104.203 193.715 103.572V103.572Z" fill="#86E14E"/>
<path d="M675.185 104.826H669.135L669.07 101.684V94.3281H675.185V104.826Z" fill="#6B8822"/>
<rect x="658.285" y="68.5703" width="27.178" height="27.0904" rx="13.5452" fill="#F67B1B"/>
<path d="M1324.35 104.826H1330.4L1330.47 101.684V94.3281H1324.35V104.826Z" fill="#6B8822"/>
<rect width="27.178" height="27.0904" rx="13.5452" transform="matrix(-1 0 0 1 1341.25 68.5703)" fill="#F67B1B"/>
<path d="M796.279 104.826H802.328L802.394 101.684V94.3281H796.279V104.826Z" fill="#6B8822"/>
<rect width="27.178" height="27.0904" rx="13.5452" transform="matrix(-1 0 0 1 813.178 68.5703)" fill="#F67B1B"/>
<path d="M869.279 104.826H875.328L875.394 101.684V94.3281H869.279V104.826Z" fill="#6B8822"/>
<rect width="27.178" height="27.0904" rx="13.5452" transform="matrix(-1 0 0 1 886.178 68.5703)" fill="#F67B1B"/>
<path d="M1089.28 104.826H1095.33L1095.39 101.684V94.3281H1089.28V104.826Z" fill="#6B8822"/>
<rect width="27.178" height="27.0904" rx="13.5452" transform="matrix(-1 0 0 1 1106.18 68.5703)" fill="#F67B1B"/>
<rect width="33.9725" height="33.8631" rx="16.9315" transform="matrix(-1 -0.000461195 -0.0293194 0.99957 839.822 41.1602)" fill="#F5C236"/>
<path d="M819.099 74.5566H825.91V104.011C823.748 105.323 821.47 106.733 819.099 108.238V74.5566Z" fill="#2C69A6"/>
<rect width="33.9725" height="33.8631" rx="16.9315" transform="matrix(-1 -0.000461195 -0.0293194 0.99957 1089.97 41.1602)" fill="#F5C236"/>
<path d="M1069.24 74.5566H1076.05V104.011C1073.89 105.323 1071.61 106.733 1069.24 108.238V74.5566Z" fill="#2C69A6"/>
<rect width="33.9725" height="33.8631" rx="16.9315" transform="matrix(-1 -0.000461195 -0.0293194 0.99957 1330.97 42.8789)" fill="#F5C236"/>
<path d="M1310.24 76.2715H1317.05V105.726C1314.89 107.037 1312.61 108.448 1310.24 109.953V76.2715Z" fill="#2C69A6"/>
<path d="M1394.24 81.4121H1401.05V110.866C1398.89 112.178 1396.61 113.589 1394.24 115.093V81.4121Z" fill="#2C69A6"/>
<rect width="33.9725" height="33.8631" rx="16.9315" transform="matrix(-1 -0.000461195 -0.0293194 0.99957 1414.97 48.0215)" fill="#F5C236"/>
<rect x="1126.86" y="63.4277" width="53.1429" height="34.2857" fill="#45DADD"/>
<rect x="1159.43" y="70.2852" width="12" height="12" rx="3.42857" fill="#326190"/>
<path d="M1137.14 80.5692C1137.14 78.6756 1138.68 77.1406 1140.57 77.1406H1145.71C1147.61 77.1406 1149.14 78.6756 1149.14 80.5692V97.712H1137.14V80.5692Z" fill="#FF5252"/>
<rect x="1130.29" y="23.998" width="6.85714" height="22.2857" rx="1.71428" fill="#45DADD"/>
<path d="M1121.71 103.427C1121.71 100.271 1124.27 97.7129 1127.43 97.7129H1179.43C1182.58 97.7129 1185.14 100.271 1185.14 103.427V103.427C1185.14 104.058 1184.63 104.57 1184 104.57H1122.86C1122.23 104.57 1121.71 104.058 1121.71 103.427V103.427Z" fill="#86E14E"/>
<path d="M1149.85 17.2421C1151.23 15.4593 1153.92 15.4593 1155.29 17.2421L1186.92 58.3357C1188.66 60.5902 1187.05 63.8557 1184.21 63.8557H1120.94C1118.09 63.8557 1116.49 60.5902 1118.22 58.3357L1149.85 17.2421Z" fill="#D43135"/>
<rect x="1201.86" y="56.5703" width="53.1429" height="41.1428" fill="#45DADD"/>
<rect x="1207" y="82.2852" width="12" height="8.57142" rx="3.42857" fill="#F67B1B"/>
<rect x="1239.57" y="71.998" width="8.57143" height="8.57142" rx="3.42857" fill="#326190"/>
<path d="M1222.43 80.5711C1222.43 78.6776 1223.96 77.1426 1225.86 77.1426H1231C1232.89 77.1426 1234.43 78.6776 1234.43 80.5711V97.714H1222.43V80.5711Z" fill="#FF5252"/>
<rect x="1244.71" y="35.998" width="6.85714" height="17.1428" rx="1.71428" fill="#45DADD"/>
<path d="M1196.71 103.427C1196.71 100.271 1199.27 97.7129 1202.43 97.7129H1254.43C1257.58 97.7129 1260.14 100.271 1260.14 103.427V103.427C1260.14 104.058 1259.63 104.57 1259 104.57H1197.86C1197.23 104.57 1196.71 104.058 1196.71 103.427V103.427Z" fill="#86E14E"/>
<path d="M1225.19 33.1564C1226.52 31.8729 1228.62 31.8729 1229.95 33.1564L1260.07 62.2466C1262.29 64.3887 1260.77 68.1411 1257.69 68.1411H1197.46C1194.37 68.1411 1192.86 64.3887 1195.07 62.2466L1225.19 33.1564Z" fill="#F5C236"/>
<rect x="933.571" y="56" width="65.1429" height="42.8571" fill="#BEC9D3"/>
<path d="M933.517 34.1818C934.031 32.8661 935.299 32 936.711 32H993.861C995.273 32 996.541 32.8661 997.054 34.1818L1003.75 51.3246C1004.62 53.5728 1002.97 56 1000.55 56H930.019C927.606 56 925.947 53.5728 926.825 51.3246L933.517 34.1818Z" fill="#45DADD"/>
<rect x="978.143" y="61.1426" width="12" height="12" rx="3.42857" fill="#326190"/>
<rect x="959.286" y="61.1426" width="12" height="12" rx="3.42857" fill="#F5C236"/>
<rect x="940.428" y="61.1426" width="12" height="12" rx="3.42857" fill="#F67B1B"/>
<rect x="940.428" y="80" width="12" height="12" rx="3.42857" fill="#326190"/>
<rect x="978.143" y="80" width="12" height="12" rx="3.42857" fill="#F67B1B"/>
<path d="M959.286 81.7157C959.286 79.8221 960.821 78.2871 962.714 78.2871H967.857C969.751 78.2871 971.286 79.8221 971.286 81.7157V98.8585H959.286V81.7157Z" fill="#FF5252"/>
<path d="M925 104.572C925 101.416 927.558 98.8574 930.714 98.8574H999.857C1003.01 98.8574 1005.57 101.416 1005.57 104.572V104.572C1005.57 105.203 1005.06 105.715 1004.43 105.715H926.143C925.512 105.715 925 105.203 925 104.572V104.572Z" fill="#86E14E"/>
<rect y="103" width="1440" height="16.9999" fill="#F5C236"/>
</svg>
