<svg width="88" height="70" viewBox="0 0 88 70" fill="none" xmlns="http://www.w3.org/2000/svg">
<path d="M61.0938 9.31494C61.8576 9.31494 62.4767 9.93396 62.4767 10.6976V23.6172C62.4767 24.3807 61.8576 24.9998 61.0938 24.9998H57.6668C56.903 24.9998 56.2838 24.3807 56.2838 23.6172V10.6976C56.2838 9.93396 56.903 9.31494 57.6668 9.31494H61.0938Z" fill="#C0D0FF"/>
<path d="M62.8444 26.6724C63.6082 26.6724 64.2273 27.2914 64.2273 28.055V51.0988C64.2273 51.8624 63.6082 52.4814 62.8444 52.4814H49.2735V37.7245C49.2735 37.1546 48.8114 36.6926 48.2414 36.6926H39.8348C39.2647 36.6926 38.8026 37.1546 38.8026 37.7245V52.4814H24.8365C24.0727 52.4814 23.4535 51.8624 23.4535 51.0988V28.055C23.4535 27.2914 24.0727 26.6724 24.8365 26.6724H62.8444Z" fill="#C0D0FF"/>
<path d="M43.6249 3.04335C43.9686 2.69836 44.5285 2.70258 44.8669 3.05273L68.0239 27.0126C68.5576 27.5648 68.1663 28.4872 67.3983 28.4872H20.3745C19.6003 28.4872 19.2117 27.5518 19.7582 27.0032L43.6249 3.04335Z" fill="#C12A71"/>
<path d="M63.51 2.20193C63.51 4.17728 61.2159 5.64949 59.6688 6.98083C59.3859 7.22429 58.9608 7.22732 58.6764 6.9856C57.0775 5.62666 54.8399 4.18458 54.8399 2.20193C54.8399 0.00216926 57.5493 -0.702357 59.1749 0.791278C60.7554 -0.660866 63.51 0.00216926 63.51 2.20193Z" fill="#F15F79"/>
<rect x="27.4201" y="35.7069" width="7.70501" height="7.70311" rx="0.87" fill="#E65C00"/>
<rect x="53.6328" y="31.2224" width="6.1929" height="7.63603" rx="0.87" fill="#3155BE"/>
<path d="M71.2659 50.8188C70.0857 51.3335 68.8574 51.8791 67.59 52.4545H67.5501V46.0567H71.2659V50.8188Z" fill="#2A824D"/>
<rect x="61.2502" y="30.3596" width="16.5144" height="16.5103" rx="8.25517" fill="#E65C00"/>
<rect width="20.643" height="20.6379" rx="10.319" transform="matrix(1 -0.000461196 0.0293193 0.99957 6.03595 17.2496)" fill="#F9D423"/>
<path d="M9.14011 55.2656C16.2167 55.1117 28.2766 55.1092 35.1626 56.5685C39.7229 57.535 42.0141 59.5236 43.1542 61.4239C43.3193 61.6993 44.9135 61.6993 45.0787 61.4239C46.2187 59.5236 48.7465 57.535 53.3068 56.5685C59.961 55.1584 71.4464 55.1131 78.5979 55.2506C77.6129 52.3716 75.1096 50.2103 71.9182 49.8882C66.0891 49.2999 56.7113 48.6441 43.8715 48.6441C31.0319 48.6442 21.6542 49.3 15.8251 49.8883C12.6281 50.2108 10.1216 52.3792 9.14011 55.2656Z" fill="#53CC51"/>
<path fill-rule="evenodd" clip-rule="evenodd" d="M14.4861 37.6035H18.625V55.2255C17.2074 55.2034 15.8162 55.1959 14.4861 55.1987V37.6035Z" fill="#3155BE"/>
<path d="M1.93672 63.1026C1.01224 62.7252 0 63.4051 0 64.4034C0 64.9667 0.336437 65.4755 0.854783 65.6961L37.0541 66.3208C37.2537 66.4058 37.4188 66.5533 37.5427 66.7314C38.4821 68.0807 40.0402 68.9315 41.7555 68.9315H46.076C47.8578 68.9315 49.4698 68.0135 50.3951 66.5723C50.5204 66.3772 50.6938 66.2152 50.9071 66.1244L86.5353 65.7429C87.1203 65.4939 87.4999 64.9197 87.4999 64.284C87.4999 63.3438 86.5454 62.7044 85.6756 63.0619L48.9337 63.2539C48.6305 63.3786 48.4046 63.6438 48.2303 63.9215C47.8136 64.5855 46.6739 65.7195 43.75 65.7195C40.9798 65.7195 39.96 64.7017 39.5886 64.0299C39.4044 63.6968 39.16 63.3624 38.8075 63.2185L1.93672 63.1026Z" fill="#274397"/>
<path d="M71.7178 62.9576C71.7273 62.5056 72.0814 62.1362 72.5326 62.1078L77.1559 61.8162C77.6776 61.7832 78.1105 62.2147 78.0794 62.7365L77.7503 68.2561C77.7348 68.5155 77.4507 68.6669 77.2266 68.5353L75.246 67.3714C75.0555 67.2595 74.8153 67.2795 74.6461 67.4214L72.1586 69.5075C71.9295 69.6996 71.5807 69.5324 71.587 69.2335L71.7178 62.9576Z" fill="#F15F79"/>
</svg>
