<svg width="84" height="67" viewBox="0 0 84 67" fill="none" xmlns="http://www.w3.org/2000/svg">
<path d="M58.6522 8.91602C59.3855 8.91602 59.9799 9.5085 59.9799 10.2394V22.6053C59.9799 23.3361 59.3855 23.9286 58.6522 23.9286H55.3623C54.6291 23.9286 54.0347 23.3361 54.0347 22.6053V10.2394C54.0347 9.5085 54.6291 8.91602 55.3623 8.91602H58.6522Z" fill="#45DADD"/>
<path d="M60.3328 25.5296C61.0661 25.5296 61.6605 26.122 61.6605 26.8529V48.9091C61.6605 49.64 61.0661 50.2325 60.3328 50.2325H47.3048V36.1081C47.3048 35.5626 46.8612 35.1204 46.3139 35.1204H38.2436C37.6964 35.1204 37.2527 35.5626 37.2527 36.1081V50.2325H23.8452C23.112 50.2325 22.5176 49.64 22.5176 48.9091V26.8529C22.5176 26.122 23.112 25.5296 23.8452 25.5296H60.3328Z" fill="#45DADD"/>
<path d="M41.8842 2.91056C42.2132 2.58128 42.7481 2.58532 43.0721 2.91952L65.3031 25.8529C65.8155 26.3815 65.441 27.2662 64.7048 27.2662H19.5613C18.8191 27.2662 18.4472 26.369 18.9718 25.8439L41.8842 2.91056Z" fill="#D43135"/>
<path d="M60.9717 2.10756C60.9717 3.99905 58.7676 5.40855 57.2823 6.68325C57.0116 6.91559 56.6055 6.91849 56.3334 6.68782C54.7983 5.38665 52.6484 4.00602 52.6484 2.10756C52.6484 0.0020763 55.2495 -0.672256 56.8101 0.757366C58.3273 -0.632543 60.9717 0.0020763 60.9717 2.10756Z" fill="#FF5252"/>
<rect x="26.3242" y="34.1768" width="7.39681" height="7.37298" rx="0.833333" fill="#F67B1B"/>
<rect x="51.4893" y="29.8838" width="5.94519" height="7.30877" rx="0.833333" fill="#2B69A6"/>
<path d="M68.6306 48.6409C67.4976 49.1336 66.3185 49.6559 65.1018 50.2066H65.0635V44.083H68.6306V48.6409Z" fill="#6B8822"/>
<rect x="58.7725" y="29.0586" width="15.8538" height="15.8027" rx="7.90137" fill="#F67B1B"/>
<rect width="19.8173" height="19.7535" rx="9.87675" transform="matrix(1 -0.000461196 0.0293193 0.99957 5.79395 16.5098)" fill="#F5C236"/>
<path d="M8.77344 52.8973C15.5669 52.7499 27.1444 52.7476 33.7551 54.1444C38.1329 55.0694 40.3325 56.9727 41.4269 58.7916C41.5855 59.0552 43.1159 59.0552 43.2745 58.7916C44.3689 56.9727 46.7956 55.0694 51.1734 54.1444C57.5615 52.7947 68.5876 52.7513 75.4529 52.8829C74.5074 50.1273 72.1042 48.0586 69.0404 47.7503C63.4445 47.1873 54.4418 46.5595 42.1156 46.5596C29.7896 46.5597 20.787 47.1873 15.191 47.7504C12.1219 48.0591 9.71562 50.1345 8.77344 52.8973Z" fill="#86E14E"/>
<path fill-rule="evenodd" clip-rule="evenodd" d="M13.9092 35.9932H17.8825V52.8599C16.5217 52.8387 15.1861 52.8316 13.9092 52.8342V35.9932Z" fill="#2C69A6"/>
<path d="M1.85925 60.3989C0.971748 60.0377 0 60.6884 0 61.644C0 62.1831 0.32298 62.6701 0.820592 62.8813L35.572 63.4792C35.7636 63.5605 35.9221 63.7018 36.041 63.8722C36.9429 65.1637 38.4386 65.978 40.0853 65.978H44.233C45.9435 65.978 47.4911 65.0994 48.3793 63.7199C48.4996 63.5332 48.6661 63.3781 48.8708 63.2912L83.0739 62.9261C83.6355 62.6877 84 62.1381 84 61.5297C84 60.6297 83.0837 60.0177 82.2486 60.36L46.9764 60.5438C46.6853 60.6631 46.4684 60.9169 46.3011 61.1827C45.9011 61.8183 44.807 62.9037 42 62.9037C39.3406 62.9037 38.3616 61.9294 38.0051 61.2865C37.8282 60.9676 37.5936 60.6475 37.2552 60.5098L1.85925 60.3989Z" fill="#326190"/>
<path d="M68.8488 60.2599C68.8579 59.8269 69.1971 59.4731 69.6294 59.4459L74.0714 59.1666C74.5712 59.1352 74.9858 59.5485 74.9559 60.0483L74.6399 65.3311C74.6251 65.5794 74.3534 65.7245 74.1388 65.5987L72.2345 64.4831C72.0524 64.3764 71.8229 64.3955 71.6611 64.5308L69.2703 66.5298C69.0508 66.7133 68.7172 66.5531 68.7232 66.267L68.8488 60.2599Z" fill="#D43135"/>
</svg>
