<svg width="75" height="75" viewBox="0 0 75 75" fill="none" xmlns="http://www.w3.org/2000/svg">
<mask id="mask0_293_4019" style="mask-type:alpha" maskUnits="userSpaceOnUse" x="0" y="0" width="75" height="75">
<rect width="75" height="75" fill="white"/>
</mask>
<g mask="url(#mask0_293_4019)">
<g opacity="0.5">
<path d="M-0.147351 -2.98138L-1.63841 -3.59645C-2.87184 -4.10525 -4.10587 -2.87122 -3.59707 -1.6378L-2.982 -0.146737L-4.02773 1.08128C-4.89277 2.09711 -4.10048 3.65208 -2.77019 3.54933L-1.16204 3.42513L-0.31728 4.79915C0.381522 5.93577 2.10521 5.66276 2.41858 4.36584L2.7974 2.79801L4.36522 2.41919C5.66215 2.10583 5.93515 0.382138 4.79854 -0.316664L3.42451 -1.16143L3.54872 -2.76958C3.65146 -4.09986 2.0965 -4.89216 1.08066 -4.02711L-0.147351 -2.98138Z" stroke="white" stroke-width="1.5"/>
<path d="M6.86954 26.2742L7.5023 26.2465L7.53002 25.6137C7.58129 24.4434 8.27002 23.4549 9.14113 22.9772C9.98701 22.5133 10.959 22.5426 11.7398 23.3234C12.4673 24.0509 12.7306 25.1629 12.7414 26.5621C12.7486 27.4984 12.6478 28.448 12.547 29.3977C12.495 29.8868 12.4431 30.3759 12.4059 30.8633C12.394 31.0194 12.2652 31.1468 12.1151 31.1592C11.6447 31.198 11.1749 31.2488 10.7074 31.2993C9.7214 31.4058 8.74543 31.5112 7.79464 31.5011C6.41131 31.4863 5.31328 31.2181 4.57919 30.484C3.79154 29.6963 3.75275 28.7209 4.2049 27.8823C4.66984 27.0201 5.65359 26.3275 6.86954 26.2742Z" stroke="white" stroke-width="1.3828"/>
<path d="M27.6952 6.29791L26.2041 5.68284C24.9707 5.17405 23.7367 6.40807 24.2455 7.6415L24.8605 9.13256L23.8148 10.3606C22.9498 11.3764 23.742 12.9314 25.0723 12.8286L26.6805 12.7044L27.5252 14.0784C28.2241 15.2151 29.9477 14.9421 30.2611 13.6451L30.6399 12.0773L32.2078 11.6985C33.5047 11.3851 33.7777 9.66143 32.6411 8.96263L31.267 8.11787L31.3912 6.50972C31.494 5.17943 29.939 4.38714 28.9232 5.25218L27.6952 6.29791Z" stroke="white" stroke-width="1.5"/>
<path d="M-0.330701 71.4483L-1.82176 70.8332C-3.05519 70.3244 -4.28922 71.5585 -3.78042 72.7919L-3.16535 74.283L-4.21108 75.511C-5.07612 76.5268 -4.28383 78.0818 -2.95354 77.979L-1.34539 77.8548L-0.50063 79.2288C0.198172 80.3655 1.92186 80.0925 2.23523 78.7955L2.61405 77.2277L4.18187 76.8489C5.4788 76.5355 5.7518 74.8118 4.61519 74.113L3.24116 73.2683L3.36537 71.6601C3.46811 70.3298 1.91315 69.5375 0.897314 70.4026L-0.330701 71.4483Z" stroke="white" stroke-width="1.5"/>
<path d="M16.1503 54.116L16.7831 54.0883L16.8108 53.4555C16.862 52.2852 17.5508 51.2967 18.4219 50.819C19.2678 50.3551 20.2398 50.3844 21.0205 51.1652C21.748 51.8926 22.0113 53.0046 22.0221 54.4039C22.0294 55.3402 21.9286 56.2898 21.8277 57.2395C21.7758 57.7286 21.7239 58.2177 21.6867 58.7051C21.6748 58.8612 21.546 58.9886 21.3959 59.001C20.9254 59.0398 20.4557 59.0906 19.9882 59.1411C19.0022 59.2476 18.0262 59.353 17.0754 59.3429C15.6921 59.3281 14.594 59.0599 13.8599 58.3258C13.0723 57.5381 13.0335 56.5627 13.4857 55.7241C13.9506 54.8619 14.9344 54.1693 16.1503 54.116Z" stroke="white" stroke-width="1.3828"/>
<path d="M36.9759 34.1417L35.4849 33.5266C34.2515 33.0178 33.0174 34.2518 33.5262 35.4853L34.1413 36.9763L33.0956 38.2043C32.2305 39.2202 33.0228 40.7751 34.3531 40.6724L35.9612 40.5482L36.806 41.9222C37.5048 43.0588 39.2285 42.7858 39.5419 41.4889L39.9207 39.9211L41.4885 39.5422C42.7854 39.2289 43.0584 37.5052 41.9218 36.8064L40.5478 35.9616L40.672 34.3535C40.7748 33.0232 39.2198 32.2309 38.204 33.0959L36.9759 34.1417Z" stroke="white" stroke-width="1.5"/>
<path d="M53.4569 16.8113L54.0897 16.7836L54.1174 16.1508C54.1687 14.9805 54.8574 13.992 55.7285 13.5143C56.5744 13.0504 57.5464 13.0797 58.3272 13.8605C59.0547 14.588 59.318 15.7 59.3288 17.0992C59.336 18.0356 59.2352 18.9851 59.1344 19.9348C59.0824 20.4239 59.0305 20.913 58.9933 21.4004C58.9814 21.5565 58.8526 21.6839 58.7025 21.6963C58.2321 21.7351 57.7623 21.7859 57.2948 21.8364C56.3088 21.9429 55.3328 22.0483 54.382 22.0382C52.9987 22.0234 51.9007 21.7552 51.1666 21.0211C50.3789 20.2334 50.3402 19.258 50.7923 18.4194C51.2572 17.5572 52.241 16.8646 53.4569 16.8113Z" stroke="white" stroke-width="1.3828"/>
<path d="M74.2826 -3.16498L72.7915 -3.78005C71.5581 -4.28884 70.3241 -3.05482 70.8329 -1.82139L71.4479 -0.33033L70.4022 0.897685C69.5372 1.91352 70.3295 3.46848 71.6597 3.36574L73.2679 3.24153L74.1127 4.61556C74.8115 5.75218 76.5351 5.47917 76.8485 4.18224L77.2273 2.61442L78.7952 2.2356C80.0921 1.92223 80.3651 0.198544 79.2285 -0.500258L77.8544 -1.34502L77.9786 -2.95317C78.0814 -4.28346 76.5264 -5.07575 75.5106 -4.21071L74.2826 -3.16498Z" stroke="white" stroke-width="1.5"/>
<path d="M43.9926 63.3972L44.6253 63.3695L44.6531 62.7368C44.7043 61.5664 45.3931 60.578 46.2642 60.1002C47.1101 59.6363 48.082 59.6656 48.8628 60.4464C49.5903 61.1739 49.8536 62.2859 49.8644 63.6851C49.8717 64.6215 49.7708 65.571 49.67 66.5208C49.6181 67.0098 49.5662 67.499 49.529 67.9864C49.5171 68.1425 49.3882 68.2699 49.2381 68.2823C48.7677 68.3211 48.298 68.3718 47.8305 68.4223C46.8444 68.5288 45.8685 68.6343 44.9177 68.6241C43.5344 68.6093 42.4363 68.3411 41.7022 67.607C40.9146 66.8194 40.8758 65.8439 41.3279 65.0054C41.7929 64.1431 42.7766 63.4505 43.9926 63.3972Z" stroke="white" stroke-width="1.3828"/>
<path d="M64.8182 43.421L63.3272 42.8059C62.0937 42.2971 60.8597 43.5311 61.3685 44.7645L61.9836 46.2556L60.9378 47.4836C60.0728 48.4995 60.8651 50.0544 62.1954 49.9517L63.8035 49.8275L64.6483 51.2015C65.3471 52.3381 67.0708 52.0651 67.3842 50.7682L67.763 49.2004L69.3308 48.8215C70.6277 48.5082 70.9007 46.7845 69.7641 46.0857L68.3901 45.2409L68.5143 43.6328C68.617 42.3025 67.0621 41.5102 66.0462 42.3752L64.8182 43.421Z" stroke="white" stroke-width="1.5"/>
<path d="M74.099 71.2647L72.6079 70.6496C71.3745 70.1408 70.1405 71.3749 70.6493 72.6083L71.2643 74.0994L70.2186 75.3274C69.3536 76.3432 70.1459 77.8982 71.4761 77.7954L73.0843 77.6712L73.9291 79.0452C74.6279 80.1819 76.3515 79.9089 76.6649 78.6119L77.0437 77.0441L78.6116 76.6653C79.9085 76.3519 80.1815 74.6282 79.0449 73.9294L77.6709 73.0847L77.7951 71.4765C77.8978 70.1462 76.3428 69.3539 75.327 70.219L74.099 71.2647Z" stroke="white" stroke-width="1.5"/>
</g>
</g>
</svg>
