<svg width="24" height="24" viewBox="0 0 24 24" fill="none" xmlns="http://www.w3.org/2000/svg">
<path fill-rule="evenodd" clip-rule="evenodd" d="M2 12.5C2 12.249 2.20351 12.0455 2.45455 12.0455L20.6364 12.0455C20.8874 12.0455 21.0909 12.249 21.0909 12.5V12.5C21.0909 12.751 20.8874 12.9545 20.6364 12.9545L2.45455 12.9545C2.20351 12.9545 2 12.751 2 12.5V12.5Z" fill="black"/>
<path fill-rule="evenodd" clip-rule="evenodd" d="M21.2133 11.8146C21.6291 12.1769 21.6291 12.8231 21.2133 13.1854L16.4845 17.3053C16.3535 17.4195 16.1613 17.4288 16.0197 17.328V17.328C15.8234 17.188 15.8079 16.9019 15.988 16.7416L19.9883 13.1789C20.3943 12.8173 20.3943 12.1827 19.9883 11.8211L15.988 8.25844C15.8079 8.09807 15.8234 7.812 16.0197 7.67203V7.67203C16.1613 7.57115 16.3535 7.58052 16.4845 7.69469L21.2133 11.8146Z" fill="black"/>
</svg>
