<svg width="24" height="24" viewBox="0 0 24 24" fill="none" xmlns="http://www.w3.org/2000/svg">
<path d="M8.83583 10.291C9.5524 10.1119 10.1119 9.5524 10.291 8.83583L11.5149 3.94028C11.6412 3.43531 12.3588 3.43531 12.4851 3.94028L13.709 8.83583C13.8881 9.5524 14.4476 10.1119 15.1642 10.291L20.0597 11.5149C20.5647 11.6412 20.5647 12.3588 20.0597 12.4851L15.1642 13.709C14.4476 13.8881 13.8881 14.4476 13.709 15.1642L12.4851 20.0597C12.3588 20.5647 11.6412 20.5647 11.5149 20.0597L10.291 15.1642C10.1119 14.4476 9.5524 13.8881 8.83583 13.709L3.94028 12.4851C3.43531 12.3588 3.43531 11.6412 3.94028 11.5149L8.83583 10.291Z" fill="black"/>
</svg>
