<svg width="24" height="24" viewBox="0 0 24 24" fill="none" xmlns="http://www.w3.org/2000/svg">
<path fill-rule="evenodd" clip-rule="evenodd" d="M18.7175 5.28294C18.9128 5.47821 18.9279 5.77971 18.7512 5.95638L5.95592 18.7516C5.77926 18.9283 5.47775 18.9132 5.28249 18.718C5.08722 18.5227 5.07215 18.2212 5.24881 18.0445L18.0441 5.24927C18.2207 5.07261 18.5223 5.08768 18.7175 5.28294Z" fill="black"/>
<path fill-rule="evenodd" clip-rule="evenodd" d="M18.7175 18.718C18.5223 18.9132 18.2057 18.9132 18.0104 18.718L5.28249 5.99005C5.08722 5.79479 5.08722 5.47821 5.28249 5.28294C5.47775 5.08768 5.79433 5.08768 5.98959 5.28294L18.7175 18.0109C18.9128 18.2061 18.9128 18.5227 18.7175 18.718Z" fill="black"/>
</svg>
