<svg width="24" height="24" viewBox="0 0 24 24" fill="none" xmlns="http://www.w3.org/2000/svg">
<path fill-rule="evenodd" clip-rule="evenodd" d="M4.92892 4.92894C5.33999 4.51787 6.00648 4.51787 6.41756 4.92894L12 10.5114L17.5824 4.92894C17.9935 4.51787 18.66 4.51787 19.0711 4.92894C19.4821 5.34002 19.4821 6.00651 19.0711 6.41759L13.4886 12L19.0711 17.5824C19.4821 17.9935 19.4821 18.66 19.0711 19.0711C18.66 19.4822 17.9935 19.4822 17.5824 19.0711L12 13.4887L6.41756 19.0711C6.00648 19.4822 5.33999 19.4822 4.92891 19.0711C4.51784 18.66 4.51784 17.9935 4.92891 17.5824L10.5113 12L4.92892 6.41759C4.51784 6.00651 4.51784 5.34002 4.92892 4.92894Z" fill="black"/>
</svg>
