<svg width="24" height="24" viewBox="0 0 24 24" fill="none" xmlns="http://www.w3.org/2000/svg">
<path fill-rule="evenodd" clip-rule="evenodd" d="M23 7.25C23 6.653 22.763 6.08075 22.3407 5.65925C22.132 5.45017 21.884 5.28432 21.611 5.1712C21.3381 5.05808 21.0455 4.9999 20.75 5H4.25C3.653 5 3.08075 5.237 2.65925 5.65925C2.45017 5.86804 2.28432 6.11601 2.1712 6.38897C2.05808 6.66193 1.9999 6.95453 2 7.25V17.75C2 18.347 2.237 18.9193 2.65925 19.3407C2.86804 19.5498 3.11601 19.7157 3.38897 19.8288C3.66193 19.9419 3.95453 20.0001 4.25 20H20.75C21.347 20 21.9193 19.763 22.3407 19.3407C22.5498 19.132 22.7157 18.884 22.8288 18.611C22.9419 18.3381 23.0001 18.0455 23 17.75V7.25ZM8.3405 13.679L4.46225 18.5H20.5378L16.6595 13.679C15.9703 14.3648 15.0376 14.7499 14.0653 14.75H10.9347C9.96241 14.75 9.02964 14.3649 8.3405 13.679ZM3.5 17.3038L7.364 12.5L3.5 7.69625V17.3038ZM17.636 12.5L21.5 17.3038V7.69625L17.636 12.5ZM4.46225 6.5L9.239 12.4377C9.44289 12.6914 9.70109 12.896 9.99457 13.0366C10.2881 13.1772 10.6093 13.2501 10.9347 13.25H14.0653C14.3907 13.2501 14.7119 13.1772 15.0054 13.0366C15.2989 12.896 15.5571 12.6914 15.761 12.4377L20.5378 6.5H4.46225Z" fill="black"/>
</svg>
