<svg width="24" height="24" viewBox="0 0 24 24" fill="none" xmlns="http://www.w3.org/2000/svg">
<path d="M13.2515 4.92615C13.129 4.96495 13.031 5.04459 12.9615 5.16712C12.839 5.38359 12.839 5.37543 12.839 7.3012V9.05543L12.3346 9.06973C8.97112 9.15959 6.46128 10.001 4.67029 11.6388C3.19379 12.9887 2.27889 14.9042 2.04608 17.1486C2.00728 17.5039 1.98686 18.4229 2.00932 18.6476L2.02566 18.8068L2.24009 18.5352C3.65532 16.732 4.82958 15.8314 6.47149 15.2902C7.79686 14.8511 9.43469 14.651 12.0487 14.604L12.839 14.5897V16.5237C12.839 18.6496 12.837 18.619 12.9636 18.8395C13.08 19.0437 13.2903 19.1377 13.5211 19.0887C13.709 19.0499 13.9152 18.9294 14.2624 18.6557C14.4401 18.5148 15.1365 17.9696 15.8104 17.4427C16.4843 16.9137 17.6565 15.9968 18.4142 15.4025C19.1718 14.8083 20.1929 14.0098 20.681 13.6279C21.1691 13.2439 21.6143 12.8866 21.6674 12.8294C21.7899 12.7028 21.8879 12.5414 21.9492 12.3699C22.0186 12.1738 22.0166 11.8818 21.9451 11.6837C21.8838 11.5183 21.7838 11.359 21.6551 11.2263C21.5877 11.1548 16.5047 7.11945 14.2297 5.32845C13.8866 5.05889 13.7457 4.97516 13.564 4.92615C13.421 4.88939 13.3679 4.88939 13.2515 4.92615Z" fill="black"/>
</svg>
