<svg width="512" height="512" viewBox="0 0 512 512" fill="none" xmlns="http://www.w3.org/2000/svg">
<rect width="512" height="512" fill="white"/>
<path d="M344.206 125.372C348.09 125.372 351.239 128.52 351.239 132.403V198.109C351.239 201.992 348.09 205.14 344.206 205.14H326.777C322.893 205.14 319.744 201.992 319.744 198.109V132.403C319.744 128.52 322.893 125.372 326.777 125.372H344.206Z" fill="#C0D0FF"/>
<path d="M353.109 213.647C356.993 213.647 360.142 216.795 360.142 220.678V337.872C360.142 341.756 356.993 344.904 353.109 344.904H284.091V269.855C284.091 266.956 281.741 264.607 278.842 264.607H236.088C233.189 264.607 230.839 266.956 230.839 269.855V344.904H159.811C155.927 344.904 152.778 341.756 152.778 337.872V220.678C152.778 216.795 155.927 213.647 159.811 213.647H353.109Z" fill="#C0D0FF"/>
<path d="M255.521 93.3201C257.183 91.6523 259.889 91.6727 261.525 93.3654L379.809 215.75C382.389 218.419 380.497 222.878 376.784 222.878H136.592C132.849 222.878 130.971 218.356 133.613 215.704L255.521 93.3201Z" fill="#C12A71"/>
<path d="M356.494 89.1974C356.494 99.2974 344.701 106.811 336.832 113.61C335.467 114.79 333.411 114.805 332.039 113.634C323.899 106.691 312.4 99.3332 312.4 89.1974C312.4 78.0101 326.179 74.427 334.447 82.0232C342.485 74.638 356.494 78.0101 356.494 89.1974Z" fill="#F15F79"/>
<rect x="172.951" y="259.594" width="39.1855" height="39.1758" rx="4.20583" fill="#E65C00"/>
<rect x="306.261" y="236.787" width="31.4953" height="38.8347" rx="4.20583" fill="#3155BE"/>
<path d="M395.938 336.449C389.936 339.067 383.689 341.842 377.244 344.768H377.041V312.23H395.938V336.449Z" fill="#2A824D"/>
<rect x="345.001" y="232.399" width="83.9876" height="83.9669" rx="41.9834" fill="#E65C00"/>
<rect width="104.984" height="104.959" rx="52.4793" transform="matrix(1 -0.000461196 0.0293193 0.99957 64.197 165.724)" fill="#F9D423"/>
<path d="M79.984 359.066C115.973 358.283 177.307 358.27 212.327 365.692C235.519 370.607 247.172 380.72 252.97 390.385C253.81 391.786 261.917 391.786 262.757 390.385C268.555 380.72 281.411 370.607 304.603 365.692C338.445 358.52 396.856 358.29 433.227 358.989C428.218 344.347 415.486 333.356 399.255 331.717C369.61 328.726 321.917 325.39 256.618 325.391C191.32 325.391 143.627 328.726 113.982 331.718C97.7227 333.358 84.9753 344.386 79.984 359.066Z" fill="#53CC51"/>
<path fill-rule="evenodd" clip-rule="evenodd" d="M107.172 269.239H128.221V358.86C121.012 358.747 113.937 358.709 107.172 358.723V269.239Z" fill="#3155BE"/>
<path d="M43.3496 398.921C38.648 397.001 33.5 400.459 33.5 405.536C33.5 408.401 35.211 410.989 37.8472 412.111L221.947 415.287C222.962 415.72 223.801 416.47 224.432 417.376C229.209 424.238 237.133 428.565 245.856 428.565H267.83C276.891 428.565 285.09 423.896 289.795 416.567C290.432 415.575 291.314 414.751 292.399 414.289L473.594 412.349C476.569 411.082 478.5 408.162 478.5 404.929C478.5 400.147 473.646 396.895 469.222 398.714L282.363 399.69C280.821 400.324 279.672 401.673 278.786 403.085C276.666 406.462 270.87 412.23 256 412.23C241.912 412.23 236.725 407.053 234.836 403.637C233.9 401.943 232.657 400.242 230.864 399.51L43.3496 398.921Z" fill="#274397"/>
<path d="M398.241 397.982C398.286 395.796 399.998 394.011 402.18 393.873L426.14 392.362C428.662 392.203 430.755 394.288 430.604 396.811L428.907 425.272C428.833 426.526 427.46 427.258 426.376 426.621L416.1 420.583C415.179 420.042 414.018 420.139 413.2 420.825L400.33 431.618C399.223 432.546 397.537 431.738 397.567 430.293L398.241 397.982Z" fill="#F15F79"/>
</svg>
